<svg xmlns="http://www.w3.org/2000/svg" viewBox="0 0 512 512" role="img" aria-labelledby="t"><title id="t">BlockBrief icon</title><defs><linearGradient id="g" x1="0" y1="0" x2="1" y2="1"><stop offset="0" stop-color="#27f0ff"/><stop offset=".46" stop-color="#168dff"/><stop offset="1" stop-color="#8b42ff"/></linearGradient><radialGradient id="bg" cx="50%" cy="20%" r="90%"><stop offset="0" stop-color="#12345f"/><stop offset=".58" stop-color="#071526"/><stop offset="1" stop-color="#02060c"/></radialGradient><filter id="glow" x="-40%" y="-40%" width="180%" height="180%"><feGaussianBlur stdDeviation="8" result="b"/><feMerge><feMergeNode in="b"/><feMergeNode in="SourceGraphic"/></feMerge></filter></defs><rect x="16" y="16" width="480" height="480" rx="110" fill="url(#bg)" stroke="#24cfff" stroke-width="8"/><g transform="translate(80 78)" filter="url(#glow)"><path d="M28 0h170c80 0 134 41 134 106 0 41-22 71-62 91 52 19 80 56 80 106 0 73-59 120-150 120H28l41-54h118c43 0 68-18 68-50 0-35-26-54-74-54H84l40-50h64c36 0 56-17 56-46 0-29-20-45-58-45h-79L28 0z" fill="url(#g)"/><path d="M11 25h88L20 352H-7z" fill="#19dcff" opacity=".8"/><path d="M73 136h167l-35 48H58z" fill="#07101c" opacity=".8"/></g></svg>